<svg width="16" height="16" viewBox="0 0 16 16" fill="none" xmlns="http://www.w3.org/2000/svg">
<path d="M7.99976 15.9985C12.4008 15.9985 15.9685 12.4308 15.9685 8.02978C15.9685 3.62877 12.4008 0.0610352 7.99976 0.0610352C3.59874 0.0610352 0.0310059 3.62877 0.0310059 8.02978C0.0310059 12.4308 3.59874 15.9985 7.99976 15.9985Z" fill="#405866"/>
<path d="M1.49128 10.0963C2.02216 10.0963 2.45253 9.66596 2.45253 9.13508C2.45253 8.60419 2.02216 8.17383 1.49128 8.17383C0.960396 8.17383 0.530029 8.60419 0.530029 9.13508C0.530029 9.66596 0.960396 10.0963 1.49128 10.0963Z" fill="#4F6977"/>
<path d="M1.57804 5.27815C1.88097 5.27815 2.12654 5.03258 2.12654 4.72965C2.12654 4.42672 1.88097 4.18115 1.57804 4.18115C1.27511 4.18115 1.02954 4.42672 1.02954 4.72965C1.02954 5.03258 1.27511 5.27815 1.57804 5.27815Z" fill="#4F6977"/>
<path d="M5.7408 2.41782C5.74083 2.64548 5.65043 2.86382 5.48947 3.02482C5.32852 3.18582 5.1102 3.27629 4.88255 3.27632C4.65489 3.27635 4.43655 3.18595 4.27555 3.025C4.11455 2.86404 4.02408 2.64573 4.02405 2.41807C4.02403 2.30535 4.04622 2.19372 4.08934 2.08957C4.13246 1.98543 4.19568 1.89079 4.27537 1.81107C4.43632 1.65007 4.65464 1.5596 4.8823 1.55957C5.10995 1.55954 5.3283 1.64994 5.4893 1.81089C5.6503 1.97185 5.74076 2.19017 5.7408 2.41782" fill="#4F6977"/>
<path d="M13.8675 11.2629C14.3415 11.2629 14.7258 10.8786 14.7258 10.4046C14.7258 9.93064 14.3415 9.54639 13.8675 9.54639C13.3935 9.54639 13.0093 9.93064 13.0093 10.4046C13.0093 10.8786 13.3935 11.2629 13.8675 11.2629Z" fill="#4F6977"/>
<path d="M11.7651 2.10104C11.7651 2.67529 11.2991 3.14029 10.7248 3.14029C10.1506 3.14029 9.68506 2.67529 9.68506 2.10104C9.68506 1.82521 9.79463 1.56068 9.98967 1.36564C10.1847 1.17061 10.4492 1.06104 10.7251 1.06104C11.0009 1.06104 11.2654 1.17061 11.4604 1.36564C11.6555 1.56068 11.7651 1.82521 11.7651 2.10104" fill="#4F6977"/>
<path d="M6.36173 5.55988C6.31698 5.45738 6.21548 5.43213 6.11298 5.45513C4.57173 5.80013 3.68448 7.08913 2.80598 8.29163C2.71223 8.42038 2.74173 8.52763 2.81673 8.58613C2.82648 8.64563 2.86348 8.69838 2.94448 8.72663C4.00023 9.09763 5.09798 9.19263 6.17448 8.86063C6.23698 8.84163 6.28448 8.80188 6.32273 8.75438C6.44348 8.73688 6.57998 8.65538 6.61823 8.53313C6.91848 7.56788 6.76148 6.47438 6.36173 5.55988" fill="white"/>
<path d="M9.24548 8.53239C9.28348 8.65464 9.41898 8.73589 9.54098 8.75364C9.57898 8.80089 9.62573 8.84089 9.68823 8.85989C10.7657 9.19189 11.8632 9.09689 12.9187 8.72589C13.0002 8.69789 13.0372 8.64514 13.0465 8.58539C13.1212 8.52714 13.1515 8.41964 13.0572 8.29089C12.1787 7.08839 11.2922 5.79939 9.74998 5.45439C9.64748 5.43139 9.54698 5.45464 9.50223 5.55914C9.10123 6.47364 8.94523 7.56664 9.24548 8.53239Z" fill="white"/>
<path d="M9.10921 8.67502C9.15121 8.81052 9.30221 8.90102 9.43696 8.92052C9.47896 8.97327 9.53196 9.01752 9.60021 9.03852C10.7957 9.40777 12.0145 9.30177 13.1875 8.89027C13.2772 8.85852 13.319 8.80027 13.3297 8.73427C13.4127 8.66902 13.445 8.55002 13.3405 8.40677C12.3657 7.07202 11.381 5.64177 9.66871 5.25752C9.55521 5.23202 9.44271 5.25777 9.39371 5.37402C8.94921 6.38927 8.77471 7.60352 9.10921 8.67502V8.67502ZM9.61696 8.53027C9.61496 8.52977 9.61396 8.53027 9.61121 8.52927C9.38221 7.63952 9.51871 6.68027 9.85521 5.83102C11.1742 6.21902 11.9825 7.34902 12.7645 8.42727C11.7297 8.76377 10.6757 8.85677 9.61696 8.53027Z" fill="#374C51"/>
<path d="M10.6818 11.625H10.2748C10.2528 11.625 10.239 11.6768 10.2205 11.6798C10.1988 11.6828 10.1793 11.7057 10.1593 11.7137C10.124 11.7275 10.0948 11.759 10.0703 11.782L10.0538 11.7985C9.07026 12.7575 7.78126 12.9787 6.55501 12.3475C5.89601 12.0087 5.95076 11.7115 5.24576 11.7115C4.95726 11.7115 4.85001 12.0462 5.02451 12.2467C6.61376 14.0825 9.31201 14.0388 10.904 12.203C11.0768 12.0028 10.9698 11.625 10.6818 11.625" fill="#2B3E44"/>
<path d="M9.07755 10.1932C8.28655 10.5637 7.52155 10.635 6.82255 10.0412C6.6373 9.88449 6.3058 10.248 6.51455 10.4255C7.33255 11.12 8.29505 10.993 9.2093 10.565C9.47155 10.4422 9.3728 10.0555 9.07755 10.1932Z" fill="#374C51"/>
<path d="M3.76748 5.88559C4.17748 5.11459 4.74598 4.59759 5.66148 4.65234C5.90373 4.66609 5.94998 4.17659 5.67698 4.15984C4.60548 4.09659 3.91198 4.77659 3.43948 5.66734C3.30298 5.92334 3.61498 6.17309 3.76748 5.88484" fill="#4F6977"/>
<path d="M12.09 5.88559C11.6797 5.11459 11.1115 4.59759 10.1962 4.65234C9.95421 4.66609 9.90746 4.17659 10.1805 4.15984C11.2517 4.09659 11.9455 4.77659 12.418 5.66734C12.5547 5.92334 12.2427 6.17309 12.09 5.88484" fill="#4F6977"/>
<path d="M6.53753 5.37463C6.48778 5.26063 6.37578 5.23288 6.26153 5.25813C4.55053 5.64113 3.56478 7.07238 2.59028 8.40738C2.48553 8.55038 2.51853 8.66963 2.60153 8.73488C2.61228 8.80088 2.65428 8.85913 2.74378 8.89088C3.91578 9.30238 5.13453 9.40813 6.33078 9.03913C6.39903 9.01813 6.45153 8.97388 6.49403 8.92113C6.62828 8.90163 6.77928 8.81113 6.82228 8.67563C7.15553 7.60388 6.98103 6.38963 6.53753 5.37463V5.37463ZM3.16653 8.42763C3.94803 7.34938 4.75628 6.21938 6.07528 5.83138C6.41253 6.68038 6.54828 7.63988 6.32003 8.52963C6.31653 8.53063 6.31503 8.53013 6.31328 8.53063C5.25453 8.85713 4.20053 8.76413 3.16653 8.42763Z" fill="#374C51"/>
<path d="M5.98673 7.3928C5.98673 7.8243 5.65523 8.17405 5.24773 8.17405C4.83873 8.17405 4.50623 7.82405 4.50623 7.3928C4.50623 6.9613 4.83873 6.6123 5.24773 6.6123C5.65548 6.6123 5.98673 6.9618 5.98673 7.3928" fill="#25333A"/>
<path d="M11.3958 7.3928C11.3958 7.8243 11.064 8.17405 10.657 8.17405C10.2473 8.17405 9.91528 7.82405 9.91528 7.3928C9.91528 6.9613 10.2473 6.6123 10.657 6.6123C11.064 6.6123 11.3958 6.9618 11.3958 7.3928" fill="#25333A"/>
</svg>
