<svg width="16" height="16" viewBox="0 0 16 16" fill="none" xmlns="http://www.w3.org/2000/svg">
<path d="M8 0.5C5.65 0.5 3.75 3.85 3.75 8C3.75 12.15 5.65 15.5 8 15.5C12.15 15.5 15.5 12.15 15.5 8C15.5 3.85 12.15 0.5 8 0.5Z" fill="#3E4347"/>
<path d="M3.75 8C3.75 3.85 5.65 0.5 8 0.5C3.85 0.5 0.5 3.85 0.5 8C0.5 12.15 3.85 15.5 8 15.5C5.65 15.5 3.75 12.15 3.75 8Z" fill="#FFE8A6"/>
<path d="M12.5 10.5498C13.4665 10.5498 14.25 9.7663 14.25 8.7998C14.25 7.83331 13.4665 7.0498 12.5 7.0498C11.5335 7.0498 10.75 7.83331 10.75 8.7998C10.75 9.7663 11.5335 10.5498 12.5 10.5498Z" fill="#464D51"/>
<path d="M6.05002 10.25H5.95002C6.00002 10.1 6.05002 9.925 6.05002 9.75C6.05002 8.925 5.37502 8.25 4.55002 8.25C4.27502 8.25 4.00002 8.325 3.77502 8.475C3.80002 9.45 3.95002 10.375 4.17502 11.2H4.20002L4.17502 11.225C4.60002 12.75 5.30002 13.975 6.15002 14.725C7.35002 14.675 8.27502 13.675 8.27502 12.475C8.30002 11.275 7.27502 10.25 6.05002 10.25" fill="#464D51"/>
<path d="M6.00004 5.2998C6.55004 5.2998 7.00004 4.8498 7.00004 4.2998C7.00004 4.1498 6.95004 3.9998 6.90004 3.8498C7.02504 3.8998 7.15004 3.9248 7.30004 3.9248C8.00004 3.9248 8.55004 3.3748 8.55004 2.6748C8.55004 1.9748 8.00004 1.4248 7.30004 1.4248C6.60004 1.4248 6.05004 1.9748 6.05004 2.6748C6.05004 2.9248 6.12504 3.1498 6.25004 3.3248C6.17504 3.2998 6.10004 3.2998 6.02504 3.2998C5.47504 3.2998 5.02504 3.7498 5.02504 4.2998C5.00004 4.8748 5.45004 5.2998 6.00004 5.2998" fill="#464D51"/>
<path d="M9.25 5.5498C9.80228 5.5498 10.25 5.10209 10.25 4.5498C10.25 3.99752 9.80228 3.5498 9.25 3.5498C8.69772 3.5498 8.25 3.99752 8.25 4.5498C8.25 5.10209 8.69772 5.5498 9.25 5.5498Z" fill="#464D51"/>
<path d="M3.90002 6C3.85002 6.375 3.80002 6.75 3.77502 7.125C3.92502 6.95 4.02502 6.725 4.02502 6.475C4.02502 6.3 3.97502 6.15 3.90002 6" fill="#464D51"/>
<path d="M9.75 2.7998C10.0261 2.7998 10.25 2.57595 10.25 2.2998C10.25 2.02366 10.0261 1.7998 9.75 1.7998C9.47386 1.7998 9.25 2.02366 9.25 2.2998C9.25 2.57595 9.47386 2.7998 9.75 2.7998Z" fill="#464D51"/>
<path d="M13 13C13.2761 13 13.5 12.7761 13.5 12.5C13.5 12.2239 13.2761 12 13 12C12.7239 12 12.5 12.2239 12.5 12.5C12.5 12.7761 12.7239 13 13 13Z" fill="#464D51"/>
<path d="M6.25 8.22461C6.66421 8.22461 7 7.88882 7 7.47461C7 7.0604 6.66421 6.72461 6.25 6.72461C5.83579 6.72461 5.5 7.0604 5.5 7.47461C5.5 7.88882 5.83579 8.22461 6.25 8.22461Z" fill="#464D51"/>
<path d="M11.5 14.1499C12.0523 14.1499 12.5 13.7022 12.5 13.1499C12.5 12.5976 12.0523 12.1499 11.5 12.1499C10.9477 12.1499 10.5 12.5976 10.5 13.1499C10.5 13.7022 10.9477 14.1499 11.5 14.1499Z" fill="#464D51"/>
<path d="M3.75002 8.47461C3.32502 8.72461 3.02502 9.22461 3.02502 9.74961C3.02502 10.4496 3.50002 11.0246 4.15002 11.1996C3.92502 10.3746 3.80002 9.44961 3.75002 8.47461" fill="#F4DC9F"/>
<path d="M4.17505 11.25C3.92505 11.6 3.80005 12.05 3.80005 12.5C3.80005 13.75 4.80005 14.75 6.05005 14.75H6.17505C5.30005 14.025 4.60005 12.775 4.17505 11.25Z" fill="#F4DC9F"/>
<path d="M3.02502 7.47461C3.32502 7.47461 3.60002 7.34961 3.77502 7.12461C3.80002 6.72461 3.85002 6.34961 3.90002 5.99961C3.72502 5.69961 3.40002 5.47461 3.02502 5.47461C2.47502 5.47461 2.02502 5.92461 2.02502 6.47461C2.02502 7.02461 2.47502 7.47461 3.02502 7.47461Z" fill="#F4DC9F"/>
<path d="M2.02502 10.25C2.30117 10.25 2.52502 10.0261 2.52502 9.75C2.52502 9.47386 2.30117 9.25 2.02502 9.25C1.74888 9.25 1.52502 9.47386 1.52502 9.75C1.52502 10.0261 1.74888 10.25 2.02502 10.25Z" fill="#F4DC9F"/>
<path d="M3.75 4.4248C4.02614 4.4248 4.25 4.20095 4.25 3.9248C4.25 3.64866 4.02614 3.4248 3.75 3.4248C3.47386 3.4248 3.25 3.64866 3.25 3.9248C3.25 4.20095 3.47386 4.4248 3.75 4.4248Z" fill="#F4DC9F"/>
</svg>
