<svg width="16" height="16" viewBox="0 0 16 16" fill="none" xmlns="http://www.w3.org/2000/svg">
<path d="M12.25 8C12.25 3.85 10.35 0.5 8 0.5C3.85 0.5 0.5 3.85 0.5 8C0.5 12.15 3.85 15.5 8 15.5C10.35 15.5 12.25 12.15 12.25 8Z" fill="#FFE8A6"/>
<path d="M8 0.5C10.35 0.5 12.25 3.85 12.25 8C12.25 12.15 10.35 15.5 8 15.5C12.15 15.5 15.5 12.15 15.5 8C15.5 3.85 12.15 0.5 8 0.5Z" fill="#3E4347"/>
<path d="M12.225 7.07471C11.4 7.19971 10.75 7.92471 10.75 8.79971C10.75 9.59971 11.275 10.2747 12 10.4747C12.15 9.69971 12.25 8.84971 12.25 7.97471C12.25 7.69971 12.25 7.37471 12.225 7.07471" fill="#F4DC9F"/>
<path d="M6.05005 10.25H5.95005C6.00005 10.1 6.05005 9.925 6.05005 9.75C6.05005 8.925 5.37505 8.25 4.55005 8.25C3.72505 8.25 3.05005 8.925 3.05005 9.75C3.05005 10.475 3.55005 11.05 4.22505 11.2C3.97505 11.575 3.82505 12 3.82505 12.5C3.82505 13.75 4.82505 14.75 6.07505 14.75C7.32505 14.75 8.32505 13.75 8.32505 12.5C8.30005 11.275 7.27505 10.25 6.05005 10.25" fill="#F4DC9F"/>
<path d="M6.00004 5.2998C6.55004 5.2998 7.00004 4.8498 7.00004 4.2998C7.00004 4.1498 6.95004 3.9998 6.90004 3.8498C7.02504 3.8998 7.15004 3.9248 7.30004 3.9248C8.00004 3.9248 8.55004 3.3748 8.55004 2.6748C8.55004 1.9748 8.00004 1.4248 7.30004 1.4248C6.60004 1.4248 6.05004 1.9748 6.05004 2.6748C6.05004 2.9248 6.12504 3.1498 6.25004 3.3248C6.17504 3.2998 6.10004 3.2998 6.02504 3.2998C5.47504 3.2998 5.02504 3.7498 5.02504 4.2998C5.00004 4.8748 5.45004 5.2998 6.00004 5.2998" fill="#F4DC9F"/>
<path d="M9.25 5.5498C9.80228 5.5498 10.25 5.10209 10.25 4.5498C10.25 3.99752 9.80228 3.5498 9.25 3.5498C8.69772 3.5498 8.25 3.99752 8.25 4.5498C8.25 5.10209 8.69772 5.5498 9.25 5.5498Z" fill="#F4DC9F"/>
<path d="M3.02502 7.47461C3.57731 7.47461 4.02502 7.02689 4.02502 6.47461C4.02502 5.92232 3.57731 5.47461 3.02502 5.47461C2.47274 5.47461 2.02502 5.92232 2.02502 6.47461C2.02502 7.02689 2.47274 7.47461 3.02502 7.47461Z" fill="#F4DC9F"/>
<path d="M9.75 2.7998C10.0261 2.7998 10.25 2.57595 10.25 2.2998C10.25 2.02366 10.0261 1.7998 9.75 1.7998C9.47386 1.7998 9.25 2.02366 9.25 2.2998C9.25 2.57595 9.47386 2.7998 9.75 2.7998Z" fill="#F4DC9F"/>
<path d="M2.02502 10.25C2.30117 10.25 2.52502 10.0261 2.52502 9.75C2.52502 9.47386 2.30117 9.25 2.02502 9.25C1.74888 9.25 1.52502 9.47386 1.52502 9.75C1.52502 10.0261 1.74888 10.25 2.02502 10.25Z" fill="#F4DC9F"/>
<path d="M6.25 8.22461C6.66421 8.22461 7 7.88882 7 7.47461C7 7.0604 6.66421 6.72461 6.25 6.72461C5.83579 6.72461 5.5 7.0604 5.5 7.47461C5.5 7.88882 5.83579 8.22461 6.25 8.22461Z" fill="#F4DC9F"/>
<path d="M3.75 4.4248C4.02614 4.4248 4.25 4.20095 4.25 3.9248C4.25 3.64866 4.02614 3.4248 3.75 3.4248C3.47386 3.4248 3.25 3.64866 3.25 3.9248C3.25 4.20095 3.47386 4.4248 3.75 4.4248Z" fill="#F4DC9F"/>
<path d="M10.5 13.1498C10.5 13.3748 10.575 13.5998 10.725 13.7748C11.05 13.2998 11.325 12.7748 11.55 12.1748H11.525C10.95 12.1498 10.5 12.5998 10.5 13.1498" fill="#F4DC9F"/>
<path d="M14.25 8.7998C14.25 7.8248 13.475 7.0498 12.5 7.0498C12.4 7.0498 12.3 7.0498 12.225 7.0748C12.25 7.3748 12.25 7.6998 12.25 7.9998C12.25 8.8748 12.175 9.6998 12 10.4998C12.15 10.5498 12.325 10.5748 12.5 10.5748C13.475 10.5498 14.25 9.7748 14.25 8.7998Z" fill="#464D51"/>
<path d="M13 13C13.2761 13 13.5 12.7761 13.5 12.5C13.5 12.2239 13.2761 12 13 12C12.7239 12 12.5 12.2239 12.5 12.5C12.5 12.7761 12.7239 13 13 13Z" fill="#464D51"/>
<path d="M11.5 14.1499C12.05 14.1499 12.5 13.6999 12.5 13.1499C12.5 12.5999 12.075 12.1749 11.525 12.1499C11.3 12.7499 11.025 13.2999 10.7 13.7499C10.9 13.9999 11.175 14.1499 11.5 14.1499" fill="#464D51"/>
</svg>
