<svg width="16" height="16" viewBox="0 0 16 16" fill="none" xmlns="http://www.w3.org/2000/svg">
<path d="M8.02252 15.973C12.4164 15.973 15.9783 12.4111 15.9783 8.01727C15.9783 3.62343 12.4164 0.0615234 8.02252 0.0615234C3.62868 0.0615234 0.0667725 3.62343 0.0667725 8.01727C0.0667725 12.4111 3.62868 15.973 8.02252 15.973Z" fill="#F5EB35"/>
<path d="M2.48554 9.12039C2.47982 9.37114 2.37619 9.60969 2.19682 9.78501C2.01746 9.96033 1.7766 10.0585 1.52579 10.0585C1.27498 10.0585 1.03412 9.96033 0.854758 9.78501C0.675393 9.60969 0.571764 9.37114 0.56604 9.12039C0.56604 8.86585 0.667156 8.62174 0.847144 8.44175C1.02713 8.26176 1.27125 8.16064 1.52579 8.16064C1.78033 8.16064 2.02445 8.26176 2.20444 8.44175C2.38442 8.62174 2.48554 8.86585 2.48554 9.12039" fill="#E0CF35"/>
<path d="M1.61208 5.26933C1.9146 5.26933 2.15983 5.02409 2.15983 4.72158C2.15983 4.41906 1.9146 4.17383 1.61208 4.17383C1.30957 4.17383 1.06433 4.41906 1.06433 4.72158C1.06433 5.02409 1.30957 5.26933 1.61208 5.26933Z" fill="#E0CF35"/>
<path d="M4.91156 3.27112C5.38473 3.27112 5.76831 2.88754 5.76831 2.41437C5.76831 1.9412 5.38473 1.55762 4.91156 1.55762C4.43839 1.55762 4.05481 1.9412 4.05481 2.41437C4.05481 2.88754 4.43839 3.27112 4.91156 3.27112Z" fill="#E0CF35"/>
<path d="M13.8825 11.2448C14.3557 11.2448 14.7393 10.8612 14.7393 10.388C14.7393 9.91483 14.3557 9.53125 13.8825 9.53125C13.4093 9.53125 13.0258 9.91483 13.0258 10.388C13.0258 10.8612 13.4093 11.2448 13.8825 11.2448Z" fill="#E0CF35"/>
<path d="M10.7433 3.13558C11.3167 3.13558 11.7816 2.67074 11.7816 2.09733C11.7816 1.52392 11.3167 1.05908 10.7433 1.05908C10.1699 1.05908 9.70508 1.52392 9.70508 2.09733C9.70508 2.67074 10.1699 3.13558 10.7433 3.13558Z" fill="#E0CF35"/>
<path d="M6.38827 5.54988C6.34352 5.44713 6.24227 5.42188 6.14002 5.44488C4.60102 5.78938 3.71527 7.07613 2.83827 8.27713C2.74477 8.40563 2.77427 8.51238 2.84902 8.57113C2.85877 8.63038 2.89577 8.68288 2.97652 8.71138C4.03052 9.08163 5.12677 9.17638 6.20127 8.84488C6.26377 8.82638 6.31127 8.78613 6.34927 8.73913C6.47002 8.72163 6.60627 8.64013 6.64427 8.51813C6.94402 7.55413 6.78727 6.46238 6.38827 5.54988" fill="white"/>
<path d="M9.26757 8.52008C9.30557 8.64208 9.44082 8.72333 9.56257 8.74108C9.60032 8.78808 9.64732 8.82833 9.70957 8.84683C10.7853 9.17833 11.8813 9.08358 12.9348 8.71333C13.0161 8.68508 13.0531 8.63258 13.0626 8.57308C13.1368 8.51458 13.1668 8.40758 13.0731 8.27908C12.1961 7.07833 11.3106 5.79158 9.77107 5.44683C9.66882 5.42383 9.56832 5.44908 9.52382 5.55183C9.12357 6.46458 8.96807 7.55683 9.26757 8.52008" fill="white"/>
<path d="M9.13127 8.66156C9.17277 8.79681 9.32377 8.88706 9.45802 8.90681C9.50002 8.95906 9.55327 9.00356 9.62102 9.02456C10.8148 9.39281 12.0318 9.28731 13.2028 8.87656C13.292 8.84481 13.3338 8.78656 13.3448 8.72081C13.4275 8.65531 13.4595 8.53681 13.3553 8.39356C12.382 7.06081 11.399 5.63106 9.69002 5.25006C9.57652 5.22431 9.46427 5.25231 9.41527 5.36606C8.97152 6.37931 8.79702 7.59156 9.13127 8.66156ZM9.63852 8.51656C9.63652 8.51606 9.63552 8.51656 9.63277 8.51556C9.40377 7.62756 9.54002 6.66981 9.87602 5.82181C11.193 6.20931 11.9998 7.33681 12.7805 8.41406C11.7475 8.74981 10.6953 8.84281 9.63852 8.51656Z" fill="#BFAD2B"/>
<path d="M10.7012 11.6938H10.295C10.273 11.6938 10.2592 11.7018 10.241 11.7048C10.219 11.7078 10.1995 11.7086 10.1795 11.7163C10.1464 11.7296 10.1162 11.749 10.0905 11.7736C10.0852 11.7786 10.0795 11.7793 10.0742 11.7851C9.09222 12.7421 7.80672 12.9601 6.58122 12.3301C5.92322 11.9916 5.97772 11.6938 5.27397 11.6938C4.98572 11.6938 4.87872 12.0273 5.05297 12.2276C6.63947 14.0603 9.33547 14.0603 10.9227 12.2276C11.0952 12.0273 10.9887 11.6938 10.7012 11.6938" fill="#BFAD2B"/>
<path d="M9.09977 10.1762C8.31002 10.5462 7.54627 10.6174 6.84727 10.0247C6.66227 9.86792 6.33152 10.2309 6.53977 10.4082C7.35652 11.1017 8.31702 10.9747 9.23027 10.5474C9.49227 10.4244 9.39377 10.0387 9.09852 10.1762" fill="#E0CF35"/>
<path d="M3.79756 5.87653C4.20681 5.10628 4.77431 4.59028 5.68831 4.64478C5.93031 4.65878 5.97631 4.16978 5.70381 4.15353C4.63406 4.09003 3.94131 4.76903 3.47006 5.65853C3.33381 5.91378 3.64531 6.16353 3.79756 5.87553" fill="#E0CF35"/>
<path d="M12.1076 5.87653C11.6981 5.10628 11.1311 4.59028 10.2168 4.64478C9.97534 4.65878 9.92859 4.16978 10.2011 4.15353C11.2706 4.09003 11.9636 4.76903 12.4351 5.65853C12.5713 5.91378 12.2601 6.16353 12.1076 5.87553" fill="#E0CF35"/>
<path d="M6.56502 5.36596C6.51527 5.25221 6.40352 5.22446 6.28952 5.24996C4.58127 5.63246 3.59702 7.06096 2.62427 8.39371C2.51977 8.53671 2.55277 8.65546 2.63552 8.72096C2.64602 8.78671 2.68777 8.84496 2.77752 8.87671C3.94752 9.28746 5.16402 9.39271 6.35852 9.02471C6.42677 9.00371 6.47902 8.95921 6.52152 8.90696C6.65552 8.88721 6.80627 8.79696 6.84927 8.66171C7.18202 7.59171 7.00777 6.37946 6.56502 5.36596V5.36596ZM3.19952 8.41421C3.97977 7.33746 4.78652 6.20971 6.10352 5.82196C6.44027 6.66996 6.57552 7.62771 6.34777 8.51571C6.34452 8.51671 6.34302 8.51621 6.34102 8.51671C5.28402 8.84296 4.23177 8.74996 3.19952 8.41421Z" fill="#BFAD2B"/>
<path d="M6.01499 7.38081C6.01499 7.81156 5.68399 8.16106 5.27724 8.16106C4.86899 8.16106 4.53699 7.81181 4.53699 7.38081C4.53699 6.95006 4.86899 6.60156 5.27724 6.60156C5.68399 6.60156 6.01499 6.95056 6.01499 7.38081Z" fill="#25333A"/>
<path d="M11.414 7.38081C11.414 7.81156 11.0828 8.16106 10.6763 8.16106C10.2675 8.16106 9.93628 7.81181 9.93628 7.38081C9.93628 6.95006 10.2675 6.60156 10.6763 6.60156C11.0828 6.60156 11.414 6.95056 11.414 7.38081Z" fill="#25333A"/>
</svg>
